<svg width="23" height="23" viewBox="0 0 23 23" fill="none" xmlns="http://www.w3.org/2000/svg">
<path fill-rule="evenodd" clip-rule="evenodd" d="M10.8599 20.1001L5.88257 22.8346C5.21025 23.204 4.37869 22.9339 4.02523 22.2313C3.88448 21.9515 3.83591 21.6311 3.88704 21.3195L4.83763 15.5277C4.91415 15.0615 4.76624 14.5857 4.44209 14.2556L0.415332 10.1538C-0.128585 9.59972 -0.139715 8.68979 0.390474 8.12139C0.601598 7.89505 0.878234 7.74775 1.17755 7.7023L6.7424 6.85728C7.19036 6.78926 7.5776 6.49525 7.77793 6.07106L10.2666 0.801481C10.6028 0.0896882 11.4274 -0.202556 12.1086 0.148734C12.3798 0.28862 12.5994 0.518041 12.7332 0.801481L15.2219 6.07106C15.4222 6.49525 15.8095 6.78926 16.2574 6.85728L21.8223 7.7023C22.5739 7.81644 23.0948 8.54575 22.9855 9.33126C22.942 9.64405 22.8011 9.93314 22.5845 10.1538L18.5577 14.2556C18.2336 14.5857 18.0857 15.0615 18.1622 15.5277L19.1128 21.3195C19.2412 22.1019 18.7384 22.8448 17.9897 22.979C17.6916 23.0325 17.385 22.9817 17.1173 22.8346L12.1399 20.1001C11.7392 19.88 11.2606 19.88 10.8599 20.1001ZM9.75244 18.0843C10.8428 17.4852 12.157 17.4852 13.2474 18.0843L16.5487 19.898L15.8926 15.9002C15.698 14.7148 16.0754 13.501 16.9164 12.6443L19.7875 9.71969L15.9121 9.13121C14.699 8.947 13.6662 8.16284 13.1422 7.05326L11.4999 3.57593L9.85767 7.05326C9.33364 8.16284 8.30082 8.947 7.0877 9.13121L3.21228 9.71969L6.08338 12.6443C6.92444 13.501 7.30182 14.7148 7.10727 15.9002L6.45112 19.898L9.75244 18.0843Z" fill="#C0C3C9"/>
</svg>
