<svg width="25" height="25" viewBox="0 0 25 25" fill="none" xmlns="http://www.w3.org/2000/svg">
<path fill-rule="evenodd" clip-rule="evenodd" d="M12.4609 0C5.57894 0 0 5.57894 0 12.4609C0 19.3428 5.57894 24.9218 12.4609 24.9218C19.3428 24.9218 24.9218 19.3428 24.9218 12.4609C24.9218 5.57894 19.3428 0 12.4609 0ZM2.26562 12.4609C2.26562 14.8287 3.0728 17.008 4.427 18.7386C6.28987 16.2999 9.22817 14.7265 12.534 14.7265C15.7968 14.7265 18.7018 16.2593 20.5679 18.6441C21.8779 16.929 22.6562 14.7859 22.6562 12.4609C22.6562 6.83021 18.0916 2.26562 12.4609 2.26562C6.83021 2.26562 2.26562 6.83021 2.26562 12.4609ZM12.4609 22.6562C10.0251 22.6562 7.7888 21.8019 6.03523 20.3767C7.4692 18.3302 9.84531 16.9921 12.534 16.9921C15.1892 16.9921 17.5396 18.2972 18.9789 20.301C17.2118 21.7716 14.9396 22.6562 12.4609 22.6562Z" fill="#C0C3C9"/>
</svg>
