<svg width="22" height="22" viewBox="0 0 22 22" fill="none" xmlns="http://www.w3.org/2000/svg">
<path d="M8.4584 2.11339C6.77592 2.11339 5.16235 2.78175 3.97266 3.97145C2.78296 5.16114 2.1146 6.77471 2.1146 8.45719C2.1146 10.1397 2.78296 11.7532 3.97266 12.9429C5.16235 14.1326 6.77592 14.801 8.4584 14.801C10.1409 14.801 11.7544 14.1326 12.9441 12.9429C14.1338 11.7532 14.8022 10.1397 14.8022 8.45719C14.8022 6.77471 14.1338 5.16114 12.9441 3.97145C11.7544 2.78175 10.1409 2.11339 8.4584 2.11339ZM5.22478e-08 8.45719C0.000192773 7.1111 0.32165 5.78449 0.937655 4.58762C1.55366 3.39075 2.44642 2.35818 3.54175 1.57574C4.63707 0.793288 5.90332 0.283557 7.23527 0.0889044C8.56721 -0.105748 9.92638 0.020301 11.1998 0.456576C12.4732 0.89285 13.6242 1.62675 14.5569 2.59728C15.4897 3.56781 16.1773 4.74695 16.5627 6.03669C16.9481 7.32643 17.0201 8.68953 16.7728 10.0127C16.5254 11.3359 15.9658 12.5809 15.1405 13.6443L20.8362 19.34C21.0288 19.5394 21.1354 19.8065 21.133 20.0837C21.1306 20.3609 21.0194 20.6261 20.8233 20.8221C20.6273 21.0182 20.3621 21.1293 20.0849 21.1318C19.8077 21.1342 19.5406 21.0276 19.3412 20.835L13.6455 15.1393C12.3952 16.11 10.8976 16.7104 9.32302 16.8722C7.74843 17.034 6.16003 16.7507 4.73845 16.0546C3.31686 15.3585 2.11914 14.2774 1.28147 12.9343C0.443811 11.5912 -0.000175851 10.0401 5.22478e-08 8.45719Z" fill="#C0C3C9"/>
</svg>
